<svg xmlns="http://www.w3.org/2000/svg" version="1.1" xmlns:xlink="http://www.w3.org/1999/xlink" xmlns:svgjs="http://svgjs.dev/svgjs" width="1000" height="1000" viewBox="0 0 1000 1000"><rect width="1000" height="1000" fill="#000000"></rect><g transform="matrix(0.7,0,0,0.7,149.57575757575745,385.3566156831458)"><svg viewBox="0 0 396 130" data-background-color="#ffffff" preserveAspectRatio="xMidYMid meet" height="328" width="1000" xmlns="http://www.w3.org/2000/svg" xmlns:xlink="http://www.w3.org/1999/xlink"><g id="tight-bounds" transform="matrix(1,0,0,1,0.24000000000006594,-0.08867612721667228)"><svg viewBox="0 0 395.51999999999987 130.17735225443332" height="130.17735225443332" width="395.51999999999987"><g><svg viewBox="0 0 557.6615123217731 183.54292862118598" height="130.17735225443332" width="395.51999999999987"><g transform="matrix(1,0,0,1,160.16391232177318,56.71742905062622)"><svg viewBox="0 0 397.4975999999999 70.10807051993353" height="70.10807051993353" width="397.4975999999999"><g id="textblocktransform"><svg viewBox="0 0 397.4975999999999 70.10807051993353" height="70.10807051993353" width="397.4975999999999" id="textblock"><g><rect width="397.4975999999999" height="3.705932987182944" x="0" y="45.46000109346647" fill="#ffffff" opacity="1" stroke-width="0" stroke="transparent" fill-opacity="1" class="rect-o-0" data-fill-palette-color="primary" rx="1%" id="o-0" data-palette-color="#58c4dd"></rect></g><g transform="matrix(1,0,0,1,0.9887999999999693,0)"><svg viewBox="0 0 395.52 41.09437322898394" height="41.09437322898394" width="395.52"><g transform="matrix(1,0,0,1,0,0)"><svg width="395.52" viewBox="3.8499999046325684 -38.04999923706055 370.5099792480469 38.5" height="41.09437322898394" data-palette-color="#58c4dd"><path d="M21.3-17.95Q23.2-17.65 24.78-16.4 26.35-15.15 27.28-13.3 28.2-11.45 28.2-9.35L28.2-9.35Q28.2-6.7 26.85-4.58 25.5-2.45 22.93-1.23 20.35 0 16.85 0L16.85 0 3.85 0 3.85-34.85 16.35-34.85Q19.9-34.85 22.4-33.68 24.9-32.5 26.15-30.5 27.4-28.5 27.4-26L27.4-26Q27.4-22.9 25.73-20.88 24.05-18.85 21.3-17.95L21.3-17.95ZM8.4-31.1L8.4-19.8 16.05-19.8Q19.25-19.8 21-21.3 22.75-22.8 22.75-25.45L22.75-25.45Q22.75-28.1 21-29.6 19.25-31.1 15.95-31.1L15.95-31.1 8.4-31.1ZM16.45-3.75Q19.85-3.75 21.75-5.35 23.65-6.95 23.65-9.8L23.65-9.8Q23.65-12.7 21.65-14.38 19.65-16.05 16.3-16.05L16.3-16.05 8.4-16.05 8.4-3.75 16.45-3.75ZM36.85-31.85Q35.55-31.85 34.65-32.75 33.75-33.65 33.75-34.95L33.75-34.95Q33.75-36.25 34.65-37.15 35.55-38.05 36.85-38.05L36.85-38.05Q38.1-38.05 38.97-37.15 39.85-36.25 39.85-34.95L39.85-34.95Q39.85-33.65 38.97-32.75 38.1-31.85 36.85-31.85L36.85-31.85ZM34.5-27.4L39.05-27.4 39.05 0 34.5 0 34.5-27.4ZM51.35-22.3Q52.75-24.75 55.45-26.3 58.15-27.85 61.6-27.85L61.6-27.85Q65.3-27.85 68.25-26.1 71.2-24.35 72.9-21.18 74.6-18 74.6-13.8L74.6-13.8Q74.6-9.65 72.9-6.4 71.2-3.15 68.22-1.35 65.25 0.45 61.6 0.45L61.6 0.45Q58.05 0.45 55.37-1.1 52.7-2.65 51.35-5.05L51.35-5.05 51.35 0 46.8 0 46.8-37 51.35-37 51.35-22.3ZM69.95-13.8Q69.95-16.9 68.7-19.2 67.45-21.5 65.32-22.7 63.2-23.9 60.65-23.9L60.65-23.9Q58.15-23.9 56.02-22.68 53.9-21.45 52.62-19.13 51.35-16.8 51.35-13.75L51.35-13.75Q51.35-10.65 52.62-8.33 53.9-6 56.02-4.78 58.15-3.55 60.65-3.55L60.65-3.55Q63.2-3.55 65.32-4.78 67.45-6 68.7-8.33 69.95-10.65 69.95-13.8L69.95-13.8ZM80.59-37L85.14-37 85.14 0 80.59 0 80.59-37ZM117.89-14.75Q117.89-13.45 117.74-12L117.74-12 95.84-12Q96.09-7.95 98.62-5.68 101.14-3.4 104.74-3.4L104.74-3.4Q107.69-3.4 109.67-4.78 111.64-6.15 112.44-8.45L112.44-8.45 117.34-8.45Q116.24-4.5 112.94-2.02 109.64 0.45 104.74 0.45L104.74 0.45Q100.84 0.45 97.77-1.3 94.69-3.05 92.94-6.28 91.19-9.5 91.19-13.75L91.19-13.75Q91.19-18 92.89-21.2 94.59-24.4 97.67-26.13 100.74-27.85 104.74-27.85L104.74-27.85Q108.64-27.85 111.64-26.15 114.64-24.45 116.27-21.48 117.89-18.5 117.89-14.75L117.89-14.75ZM113.19-15.7Q113.19-18.3 112.04-20.18 110.89-22.05 108.92-23.03 106.94-24 104.54-24L104.54-24Q101.09-24 98.67-21.8 96.24-19.6 95.89-15.7L95.89-15.7 113.19-15.7ZM155.99-31.15L141.79-31.15 141.79-19.5 154.49-19.5 154.49-15.75 141.79-15.75 141.79-3.75 155.99-3.75 155.99 0 137.24 0 137.24-34.9 155.99-34.9 155.99-31.15ZM172.58 0.45Q169.43 0.45 166.93-0.63 164.43-1.7 162.98-3.63 161.53-5.55 161.38-8.05L161.38-8.05 166.08-8.05Q166.28-6 168.01-4.7 169.73-3.4 172.53-3.4L172.53-3.4Q175.13-3.4 176.63-4.55 178.13-5.7 178.13-7.45L178.13-7.45Q178.13-9.25 176.53-10.13 174.93-11 171.58-11.85L171.58-11.85Q168.53-12.65 166.61-13.48 164.68-14.3 163.31-15.93 161.93-17.55 161.93-20.2L161.93-20.2Q161.93-22.3 163.18-24.05 164.43-25.8 166.73-26.83 169.03-27.85 171.98-27.85L171.98-27.85Q176.53-27.85 179.33-25.55 182.13-23.25 182.33-19.25L182.33-19.25 177.78-19.25Q177.63-21.4 176.06-22.7 174.48-24 171.83-24L171.83-24Q169.38-24 167.93-22.95 166.48-21.9 166.48-20.2L166.48-20.2Q166.48-18.85 167.36-17.98 168.23-17.1 169.56-16.57 170.88-16.05 173.23-15.4L173.23-15.4Q176.18-14.6 178.03-13.83 179.88-13.05 181.21-11.5 182.53-9.95 182.58-7.45L182.58-7.45Q182.58-5.2 181.33-3.4 180.08-1.6 177.81-0.58 175.53 0.45 172.58 0.45L172.58 0.45ZM198.68 0.45Q195.53 0.45 193.03-0.63 190.53-1.7 189.08-3.63 187.63-5.55 187.48-8.05L187.48-8.05 192.18-8.05Q192.38-6 194.11-4.7 195.83-3.4 198.63-3.4L198.63-3.4Q201.23-3.4 202.73-4.55 204.23-5.7 204.23-7.45L204.23-7.45Q204.23-9.25 202.63-10.13 201.03-11 197.68-11.85L197.68-11.85Q194.63-12.65 192.71-13.48 190.78-14.3 189.41-15.93 188.03-17.55 188.03-20.2L188.03-20.2Q188.03-22.3 189.28-24.05 190.53-25.8 192.83-26.83 195.13-27.85 198.08-27.85L198.08-27.85Q202.63-27.85 205.43-25.55 208.23-23.25 208.43-19.25L208.43-19.25 203.88-19.25Q203.73-21.4 202.16-22.7 200.58-24 197.93-24L197.93-24Q195.48-24 194.03-22.95 192.58-21.9 192.58-20.2L192.58-20.2Q192.58-18.85 193.46-17.98 194.33-17.1 195.66-16.57 196.98-16.05 199.33-15.4L199.33-15.4Q202.28-14.6 204.13-13.83 205.98-13.05 207.31-11.5 208.63-9.95 208.68-7.45L208.68-7.45Q208.68-5.2 207.43-3.4 206.18-1.6 203.91-0.58 201.63 0.45 198.68 0.45L198.68 0.45ZM240.08-14.75Q240.08-13.45 239.93-12L239.93-12 218.03-12Q218.28-7.95 220.8-5.68 223.33-3.4 226.93-3.4L226.93-3.4Q229.88-3.4 231.85-4.78 233.83-6.15 234.63-8.45L234.63-8.45 239.53-8.45Q238.43-4.5 235.13-2.02 231.83 0.45 226.93 0.45L226.93 0.45Q223.03 0.45 219.95-1.3 216.88-3.05 215.13-6.28 213.38-9.5 213.38-13.75L213.38-13.75Q213.38-18 215.08-21.2 216.78-24.4 219.85-26.13 222.93-27.85 226.93-27.85L226.93-27.85Q230.83-27.85 233.83-26.15 236.83-24.45 238.45-21.48 240.08-18.5 240.08-14.75L240.08-14.75ZM235.38-15.7Q235.38-18.3 234.23-20.18 233.08-22.05 231.1-23.03 229.13-24 226.73-24L226.73-24Q223.28-24 220.85-21.8 218.43-19.6 218.08-15.7L218.08-15.7 235.38-15.7ZM259.43-27.9Q264.43-27.9 267.53-24.88 270.63-21.85 270.63-16.15L270.63-16.15 270.63 0 266.13 0 266.13-15.5Q266.13-19.6 264.08-21.78 262.03-23.95 258.48-23.95L258.48-23.95Q254.88-23.95 252.75-21.7 250.63-19.45 250.63-15.15L250.63-15.15 250.63 0 246.08 0 246.08-27.4 250.63-27.4 250.63-23.5Q251.98-25.6 254.3-26.75 256.63-27.9 259.43-27.9L259.43-27.9ZM290.77-23.65L283.62-23.65 283.62-7.5Q283.62-5.5 284.47-4.67 285.32-3.85 287.42-3.85L287.42-3.85 290.77-3.85 290.77 0 286.67 0Q282.87 0 280.97-1.75 279.07-3.5 279.07-7.5L279.07-7.5 279.07-23.65 275.52-23.65 275.52-27.4 279.07-27.4 279.07-34.3 283.62-34.3 283.62-27.4 290.77-27.4 290.77-23.65ZM298.62-31.85Q297.32-31.85 296.42-32.75 295.52-33.65 295.52-34.95L295.52-34.95Q295.52-36.25 296.42-37.15 297.32-38.05 298.62-38.05L298.62-38.05Q299.87-38.05 300.75-37.15 301.62-36.25 301.62-34.95L301.62-34.95Q301.62-33.65 300.75-32.75 299.87-31.85 298.62-31.85L298.62-31.85ZM296.27-27.4L300.82-27.4 300.82 0 296.27 0 296.27-27.4ZM306.87-13.8Q306.87-18 308.57-21.18 310.27-24.35 313.24-26.1 316.22-27.85 319.87-27.85L319.87-27.85Q323.47-27.85 326.12-26.3 328.77-24.75 330.07-22.4L330.07-22.4 330.07-27.4 334.67-27.4 334.67 0 330.07 0 330.07-5.1Q328.72-2.7 326.04-1.13 323.37 0.45 319.82 0.45L319.82 0.45Q316.17 0.45 313.22-1.35 310.27-3.15 308.57-6.4 306.87-9.65 306.87-13.8L306.87-13.8ZM330.07-13.75Q330.07-16.85 328.82-19.15 327.57-21.45 325.44-22.68 323.32-23.9 320.77-23.9L320.77-23.9Q318.22-23.9 316.12-22.7 314.02-21.5 312.77-19.2 311.52-16.9 311.52-13.8L311.52-13.8Q311.52-10.65 312.77-8.33 314.02-6 316.12-4.78 318.22-3.55 320.77-3.55L320.77-3.55Q323.32-3.55 325.44-4.78 327.57-6 328.82-8.33 330.07-10.65 330.07-13.75L330.07-13.75ZM342.37-37L346.92-37 346.92 0 342.37 0 342.37-37ZM364.36 0.45Q361.21 0.45 358.71-0.63 356.21-1.7 354.76-3.63 353.31-5.55 353.16-8.05L353.16-8.05 357.86-8.05Q358.06-6 359.79-4.7 361.51-3.4 364.31-3.4L364.31-3.4Q366.91-3.4 368.41-4.55 369.91-5.7 369.91-7.45L369.91-7.45Q369.91-9.25 368.31-10.13 366.71-11 363.36-11.85L363.36-11.85Q360.31-12.65 358.39-13.48 356.46-14.3 355.09-15.93 353.71-17.55 353.71-20.2L353.71-20.2Q353.71-22.3 354.96-24.05 356.21-25.8 358.51-26.83 360.81-27.85 363.76-27.85L363.76-27.85Q368.31-27.85 371.11-25.55 373.91-23.25 374.11-19.25L374.11-19.25 369.56-19.25Q369.41-21.4 367.84-22.7 366.26-24 363.61-24L363.61-24Q361.16-24 359.71-22.95 358.26-21.9 358.26-20.2L358.26-20.2Q358.26-18.85 359.14-17.98 360.01-17.1 361.34-16.57 362.66-16.05 365.01-15.4L365.01-15.4Q367.96-14.6 369.81-13.83 371.66-13.05 372.99-11.5 374.31-9.95 374.36-7.45L374.36-7.45Q374.36-5.2 373.11-3.4 371.86-1.6 369.59-0.58 367.31 0.45 364.36 0.45L364.36 0.45Z" opacity="1" transform="matrix(1,0,0,1,0,0)" fill="#ffffff" class="wordmark-text-0" data-fill-palette-color="primary" id="text-0"></path></svg></g></svg></g><g transform="matrix(1,0,0,1,76.53311999999997,53.531561945131934)"><svg viewBox="0 0 244.43135999999998 16.576508574801597" height="16.576508574801597" width="244.43135999999998"><g transform="matrix(1,0,0,1,0,0)"><svg width="244.43135999999998" viewBox="1.75 -38.150001525878906 762.27001953125 51.70000076293945" height="16.576508574801597" data-palette-color="#77d4fc"><path d="M24.45-35L38.7-35 38.55-31.7Q37.45-31.65 36.63-31.4 35.8-31.15 35.33-30.28 34.85-29.4 34.75-27.35L34.75-27.35 33.75-8.2Q33.7-6.85 33.55-5.6 33.4-4.35 33.3-3.7L33.3-3.7Q34.15-3.8 35.35-3.83 36.55-3.85 37.05-3.85L37.05-3.85 36.85 0 22.65 0 22.8-3.3Q23.95-3.35 24.75-3.6 25.55-3.85 26.03-4.75 26.5-5.65 26.6-7.65L26.6-7.65 27.05-15.75 13.25-15.6 12.85-8.2Q12.8-6.85 12.68-5.6 12.55-4.35 12.45-3.7L12.45-3.7Q13.25-3.8 14.48-3.83 15.7-3.85 16.2-3.85L16.2-3.85 16 0 1.75 0 1.95-3.3Q3.05-3.35 3.85-3.6 4.65-3.85 5.13-4.75 5.6-5.65 5.7-7.65L5.7-7.65 6.7-26.8Q6.8-28.15 6.93-29.4 7.05-30.65 7.15-31.3L7.15-31.3Q6.35-31.25 5.15-31.23 3.95-31.2 3.4-31.15L3.4-31.15 3.6-35 17.8-35 17.65-31.7Q16.55-31.65 15.73-31.4 14.9-31.15 14.43-30.28 13.95-29.4 13.85-27.35L13.85-27.35 13.45-19.55 27.2-19.55 27.6-26.8Q27.7-28.15 27.8-29.4 27.9-30.65 28.05-31.3L28.05-31.3Q27.25-31.25 26.03-31.23 24.8-31.2 24.25-31.15L24.25-31.15 24.45-35ZM52.95-25.55L52.95-25.55Q55.15-25.55 56.85-24.9 58.55-24.25 59.5-22.85 60.45-21.45 60.45-19.25L60.45-19.25Q60.45-17.2 59.22-15.78 58-14.35 56.02-13.45 54.05-12.55 51.7-11.98 49.35-11.4 47.15-11.1L47.15-11.1Q47.15-8.25 47.82-6.73 48.5-5.2 49.55-4.63 50.6-4.05 51.65-4.05L51.65-4.05Q52.5-4.05 53.67-4.38 54.85-4.7 56.05-5.75 57.25-6.8 58.15-8.85L58.15-8.85 60.95-7.5Q59.55-4.25 57.8-2.5 56.05-0.75 54.15-0.1 52.25 0.55 50.3 0.55L50.3 0.55Q45.7 0.6 43-2.1 40.3-4.8 40.3-10.35L40.3-10.35Q40.3-12.75 41.05-15.4 41.8-18.05 43.32-20.35 44.85-22.65 47.25-24.1 49.65-25.55 52.95-25.55ZM52.4-22.25L52.4-22.25Q50.7-22.25 49.65-21.05 48.6-19.85 48.05-18.03 47.5-16.2 47.3-14.35L47.3-14.35Q50-14.85 51.6-15.7 53.2-16.55 53.92-17.65 54.65-18.75 54.6-19.95L54.6-19.95Q54.55-21.2 53.85-21.73 53.15-22.25 52.4-22.25ZM71.9-37.75L74.6-37.75Q74.45-36.2 74.27-34.73 74.1-33.25 73.95-31.9 73.8-30.55 73.65-29.25L73.65-29.25Q73.1-24.45 72.7-20.88 72.3-17.3 72.02-14.73 71.75-12.15 71.57-10.4 71.4-8.65 71.32-7.5 71.25-6.35 71.25-5.55L71.25-5.55Q71.25-4.65 71.47-4.38 71.7-4.1 71.95-4.1L71.95-4.1Q72.55-4.1 73.15-4.95 73.75-5.8 74.4-8.05L74.4-8.05 77.1-7.25Q76.8-6 76.22-4.63 75.65-3.25 74.75-2.08 73.85-0.9 72.52-0.18 71.2 0.55 69.4 0.55L69.4 0.55Q67.6 0.55 66.25-0.55 64.9-1.65 64.9-4.25L64.9-4.25Q64.9-6.05 65.02-8.2 65.15-10.35 65.35-12.75 65.55-15.15 65.82-17.68 66.1-20.2 66.4-22.8 66.7-25.4 67-27.95L67-27.95Q67.1-28.95 67.27-30.23 67.45-31.5 67.65-32.6L67.65-32.6Q66.85-32.55 65.77-32.52 64.7-32.5 64.15-32.45L64.15-32.45 64.35-36.25Q66.65-36.25 68.2-36.5 69.75-36.75 70.65-37.1 71.55-37.45 71.9-37.75L71.9-37.75ZM91.64 12.75L78.99 12.75 78.99 9.5Q80.24 9.5 80.87 8.93 81.49 8.35 81.77 7.33 82.04 6.3 82.14 5L82.14 5Q82.69-0.85 83.04-5.13 83.39-9.4 83.57-12.3 83.74-15.2 83.82-16.93 83.89-18.65 83.89-19.45L83.89-19.45Q83.89-20.35 83.67-20.63 83.44-20.9 83.14-20.9L83.14-20.9Q82.59-20.9 81.99-20.05 81.39-19.2 80.74-16.95L80.74-16.95 78.04-17.75Q78.24-18.8 78.69-20.15 79.14-21.5 79.94-22.73 80.74-23.95 81.92-24.75 83.09-25.55 84.74-25.55L84.74-25.55Q86.34-25.55 87.59-24.6 88.84-23.65 88.84-21L88.84-21Q88.84-20.05 88.79-19.45 88.74-18.85 88.64-18L88.64-18 88.69-18Q89.89-21 91.37-22.65 92.84-24.3 94.39-24.93 95.94-25.55 97.24-25.55L97.24-25.55Q99.64-25.55 101.29-24.35 102.94-23.15 103.79-21 104.64-18.85 104.64-16L104.64-16Q104.64-11.25 103.12-7.5 101.59-3.75 98.47-1.6 95.34 0.55 90.54 0.55L90.54 0.55Q90.29 0.55 89.82 0.55 89.34 0.55 88.94 0.5L88.94 0.5Q88.84 2.9 88.74 4.53 88.64 6.15 88.54 7.23 88.44 8.3 88.34 9.1L88.34 9.1Q89.14 9 90.14 8.97 91.14 8.95 91.64 8.95L91.64 8.95 91.64 12.75ZM91.14-2.75L91.14-2.75Q92.84-2.75 94.02-3.73 95.19-4.7 95.94-6.25 96.69-7.8 97.12-9.6 97.54-11.4 97.69-13.08 97.84-14.75 97.84-15.95L97.84-15.95Q97.84-17.8 97.54-18.9 97.24-20 96.69-20.5 96.14-21 95.39-21L95.39-21Q94.39-21 93.52-20.2 92.64-19.4 91.92-17.8 91.19-16.2 90.64-13.85 90.09-11.5 89.69-8.4L89.69-8.4Q89.54-7.15 89.39-5.83 89.24-4.5 89.14-3.05L89.14-3.05Q89.69-2.9 90.27-2.83 90.84-2.75 91.14-2.75ZM114.14-25.55L114.14-25.55Q116.74-25.55 117.77-23.98 118.79-22.4 118.79-19.75L118.79-19.75Q118.79-18.55 118.54-16.5 118.29-14.45 117.99-12.2 117.69-9.95 117.44-8.1 117.19-6.25 117.19-5.4L117.19-5.4Q117.19-4.6 117.44-4.35 117.69-4.1 117.94-4.1L117.94-4.1Q118.54-4.1 119.14-4.95 119.74-5.8 120.39-8.05L120.39-8.05 123.09-7.25Q122.89-6.2 122.32-4.85 121.74-3.5 120.79-2.27 119.84-1.05 118.52-0.25 117.19 0.55 115.49 0.55L115.49 0.55Q112.74 0.55 111.72-0.95 110.69-2.45 110.69-5.1L110.69-5.1Q110.69-6.55 110.94-8.55 111.19-10.55 111.52-12.65 111.84-14.75 112.09-16.57 112.34-18.4 112.34-19.6L112.34-19.6Q112.34-20.45 112.09-20.68 111.84-20.9 111.54-20.9L111.54-20.9Q110.99-20.9 110.39-20.05 109.79-19.2 109.14-16.95L109.14-16.95 106.44-17.75Q106.64-18.8 107.24-20.15 107.84-21.5 108.82-22.73 109.79-23.95 111.12-24.75 112.44-25.55 114.14-25.55ZM115.89-38.15L115.89-38.15Q117.54-38.15 118.57-36.95 119.59-35.75 119.49-34L119.49-34Q119.44-32.3 118.34-31.13 117.24-29.95 115.59-29.95L115.59-29.95Q113.89-29.95 112.87-31.13 111.84-32.3 111.89-34L111.89-34Q111.99-35.75 113.19-36.95 114.39-38.15 115.89-38.15ZM146.19 0.55L146.19 0.55Q143.44 0.55 142.46-0.95 141.49-2.45 141.49-5.1L141.49-5.1Q141.49-6.6 141.69-8.47 141.89-10.35 142.11-12.3 142.34-14.25 142.54-15.98 142.74-17.7 142.74-18.85L142.74-18.85Q142.74-19.6 142.59-20.08 142.44-20.55 142.14-20.75 141.84-20.95 141.34-20.95L141.34-20.95Q140.44-20.95 139.46-19.85 138.49-18.75 137.59-16.88 136.69-15 135.99-12.73 135.29-10.45 134.86-8.08 134.44-5.7 134.44-3.6L134.44-3.6Q134.44-2.95 134.49-1.78 134.54-0.6 134.59 0L134.59 0 128.14 0Q128.04-1.05 128.01-1.48 127.99-1.9 127.99-2.4L127.99-2.4Q127.99-3.45 128.11-4.88 128.24-6.3 128.44-7.98 128.64-9.65 128.84-11.3L128.84-11.3Q128.99-12.65 129.16-13.93 129.34-15.2 129.49-16.32 129.64-17.45 129.71-18.3 129.79-19.15 129.79-19.6L129.79-19.6Q129.79-20.45 129.56-20.68 129.34-20.9 129.09-20.9L129.09-20.9Q128.54-20.9 127.94-20.05 127.34-19.2 126.69-16.95L126.69-16.95 123.94-17.75Q124.19-18.8 124.64-20.15 125.09-21.5 125.89-22.73 126.69-23.95 127.84-24.75 128.99-25.55 130.64-25.55L130.64-25.55Q131.74-25.55 132.69-25.15 133.64-24.75 134.24-23.78 134.84-22.8 134.84-21L134.84-21Q134.84-20.05 134.74-19.45 134.64-18.85 134.54-18L134.54-18 134.59-18Q135.79-21 137.21-22.65 138.64-24.3 140.16-24.93 141.69-25.55 143.14-25.55L143.14-25.55Q145.29-25.55 146.59-24.6 147.89-23.65 148.51-21.93 149.14-20.2 149.14-17.85L149.14-17.85Q149.14-16.05 148.84-13.85 148.54-11.65 148.21-9.45 147.89-7.25 147.89-5.4L147.89-5.4Q147.89-4.6 148.14-4.35 148.39-4.1 148.64-4.1L148.64-4.1Q149.19-4.1 149.79-4.95 150.39-5.8 151.04-8.05L151.04-8.05 153.74-7.25Q153.54-6.2 152.96-4.85 152.39-3.5 151.44-2.27 150.49-1.05 149.19-0.25 147.89 0.55 146.19 0.55ZM163.14 13.55L163.14 13.55Q161.29 13.55 159.79 13.23 158.29 12.9 157.21 12.25 156.14 11.6 155.56 10.63 154.99 9.65 154.99 8.4L154.99 8.4Q154.99 7.65 155.34 6.8 155.69 5.95 156.41 5.35 157.14 4.75 158.34 4.75L158.34 4.75Q159.69 4.75 160.59 5.6 161.49 6.45 161.49 7.9L161.49 7.9Q161.49 8.7 161.19 9.4L161.19 9.4Q161.44 9.75 162.24 10 163.04 10.25 163.59 10.25L163.59 10.25Q165.59 10.25 166.69 9.13 167.79 8 168.31 6.05 168.84 4.1 169.14 1.65L169.14 1.65Q169.49-1 169.86-2.95 170.24-4.9 170.84-6.9L170.84-6.9 170.79-6.9Q169.84-4.7 168.84-3.25 167.84-1.8 166.76-0.98 165.69-0.15 164.56 0.2 163.44 0.55 162.29 0.55L162.29 0.55Q160.49 0.55 158.91-0.43 157.34-1.4 156.36-3.43 155.39-5.45 155.39-8.55L155.39-8.55Q155.39-12 156.21-15.08 157.04-18.15 158.81-20.5 160.59-22.85 163.34-24.2 166.09-25.55 169.89-25.55L169.89-25.55Q171.29-25.55 173.41-25.28 175.54-25 177.54-24.5L177.54-24.5Q177.44-22.7 177.26-19.83 177.09-16.95 176.86-13.65 176.64-10.35 176.39-7.28 176.14-4.2 175.94-2L175.94-2Q175.54 2.7 174.16 6.2 172.79 9.7 170.11 11.63 167.44 13.55 163.14 13.55ZM164.34-3.9L164.34-3.9Q165.44-3.9 166.39-5.03 167.34-6.15 168.11-8.08 168.89-10 169.49-12.38 170.09-14.75 170.49-17.23 170.89-19.7 170.99-21.95L170.99-21.95Q170.69-22.05 170.01-22.15 169.34-22.25 168.69-22.25L168.69-22.25Q166.99-22.25 165.74-21.33 164.49-20.4 163.71-18.6 162.94-16.8 162.56-14.23 162.19-11.65 162.19-8.3L162.19-8.3Q162.19-6.95 162.46-5.95 162.74-4.95 163.24-4.42 163.74-3.9 164.34-3.9ZM199.33 13.55L199.33 13.55Q197.03 13.55 195.81 12.45 194.58 11.35 194.58 9.65L194.58 9.65Q194.58 8.05 195.61 7.1 196.63 6.15 197.78 6.15L197.78 6.15Q200.43 6.15 200.83 8.85L200.83 8.85Q200.93 8.9 201.08 8.9 201.23 8.9 201.33 8.9L201.33 8.9Q202.18 8.9 203.11 8.25 204.03 7.6 204.88 6.65 205.73 5.7 206.41 4.73 207.08 3.75 207.38 3.05L207.38 3.05Q207.03 0.65 206.23-2.13 205.43-4.9 204.41-7.78 203.38-10.65 202.28-13.33 201.18-16 200.23-18.2L200.23-18.2Q199.88-19 199.31-19.95 198.73-20.9 197.88-20.9L197.88-20.9Q197.23-20.9 196.56-20.2 195.88-19.5 195.63-17.15L195.63-17.15 192.83-17.55Q192.93-18.65 193.36-20 193.78-21.35 194.66-22.63 195.53-23.9 196.91-24.73 198.28-25.55 200.28-25.55L200.28-25.55Q201.93-25.55 203.11-24.78 204.28-24 205.11-22.8 205.93-21.6 206.43-20.35L206.43-20.35Q207.13-18.65 208.13-15.95 209.13-13.25 210.06-10.08 210.98-6.9 211.53-3.65L211.53-3.65 211.58-3.65Q212.63-5.95 213.33-8.1 214.03-10.25 214.46-12.2 214.88-14.15 214.98-15.8L214.98-15.8Q215.03-16.35 214.98-17.53 214.93-18.7 214.38-19.3L214.38-19.3Q214.18-19.25 214.03-19.25 213.88-19.25 213.68-19.25L213.68-19.25Q212.43-19.25 211.53-20.1 210.63-20.95 210.63-22.15L210.63-22.15Q210.63-23.9 211.73-24.73 212.83-25.55 214.08-25.55L214.08-25.55Q215.93-25.55 217.06-24.5 218.18-23.45 218.68-21.85 219.18-20.25 219.18-18.55L219.18-18.55Q219.18-16.4 218.48-13.35 217.78-10.3 216.51-6.88 215.23-3.45 213.53-0.1L213.53-0.1Q211.63 3.55 209.33 6.68 207.03 9.8 204.48 11.68 201.93 13.55 199.33 13.55ZM235.18-25.55L235.18-25.55Q237.98-25.55 240.25-24.25 242.53-22.95 243.88-20.45 245.23-17.95 245.23-14.4L245.23-14.4Q245.23-10.45 243.7-7.03 242.18-3.6 239.38-1.53 236.58 0.55 232.68 0.55L232.68 0.55Q229.33 0.55 227.08-0.98 224.83-2.5 223.73-5.1 222.63-7.7 222.63-10.8L222.63-10.8Q222.63-14.8 224.15-18.15 225.68-21.5 228.5-23.53 231.33-25.55 235.18-25.55ZM234.43-22.25L234.43-22.25Q232.93-22.3 231.8-20.93 230.68-19.55 230.05-17.25 229.43-14.95 229.43-12.2L229.43-12.2Q229.43-10.7 229.6-9.05 229.78-7.4 230.25-5.98 230.73-4.55 231.5-3.65 232.28-2.75 233.48-2.75L233.48-2.75Q234.78-2.75 235.68-3.75 236.58-4.75 237.15-6.33 237.73-7.9 238-9.65 238.28-11.4 238.33-12.95L238.33-12.95Q238.38-14.3 238.23-15.9 238.08-17.5 237.68-18.95 237.28-20.4 236.48-21.33 235.68-22.25 234.43-22.25ZM257.53 0.55L257.53 0.55Q255.43 0.55 254.1-0.4 252.78-1.35 252.15-3.08 251.53-4.8 251.53-7.15L251.53-7.15Q251.53-9 251.85-11.2 252.18-13.4 252.5-15.6 252.83-17.8 252.83-19.6L252.83-19.6Q252.83-20.45 252.55-20.68 252.28-20.9 252.03-20.9L252.03-20.9Q251.48-20.9 250.88-20.05 250.28-19.2 249.63-16.95L249.63-16.95 246.93-17.75Q247.13-18.8 247.7-20.15 248.28-21.5 249.23-22.73 250.18-23.95 251.48-24.75 252.78-25.55 254.48-25.55L254.48-25.55Q257.28-25.55 258.25-24.05 259.23-22.55 259.23-19.9L259.23-19.9Q259.23-18.4 259.03-16.53 258.83-14.65 258.58-12.7 258.33-10.75 258.13-9.03 257.93-7.3 257.93-6.15L257.93-6.15Q257.93-5.4 258.08-4.93 258.23-4.45 258.53-4.25 258.83-4.05 259.33-4.05L259.33-4.05Q260.18-4.05 261.1-5.15 262.03-6.25 262.88-8.13 263.73-10 264.43-12.28 265.13-14.55 265.55-16.93 265.98-19.3 265.98-21.4L265.98-21.4Q265.98-22.1 265.95-23.25 265.93-24.4 265.83-25L265.83-25 272.28-25Q272.38-23.95 272.4-23.53 272.43-23.1 272.43-22.6L272.43-22.6Q272.43-21.55 272.3-20.08 272.18-18.6 271.98-16.9 271.78-15.2 271.53-13.5L271.53-13.5Q271.38-12.15 271.2-10.9 271.03-9.65 270.88-8.58 270.73-7.5 270.65-6.68 270.58-5.85 270.58-5.4L270.58-5.4Q270.58-4.6 270.8-4.35 271.03-4.1 271.28-4.1L271.28-4.1Q271.83-4.1 272.43-4.95 273.03-5.8 273.68-8.05L273.68-8.05 276.38-7.25Q276.18-6.2 275.73-4.85 275.28-3.5 274.48-2.27 273.68-1.05 272.53-0.25 271.38 0.55 269.73 0.55L269.73 0.55Q268.13 0.55 266.83-0.4 265.53-1.35 265.53-4L265.53-4Q265.53-5 265.63-5.7 265.73-6.4 265.78-7.25L265.78-7.25 265.73-7.25Q264.58-4.25 263.23-2.55 261.88-0.85 260.43-0.15 258.98 0.55 257.53 0.55ZM300.57 0.55L300.57 0.55Q298.47 0.55 297.15-0.4 295.82-1.35 295.2-3.08 294.57-4.8 294.57-7.15L294.57-7.15Q294.57-9 294.9-11.2 295.22-13.4 295.55-15.6 295.87-17.8 295.87-19.6L295.87-19.6Q295.87-20.45 295.6-20.68 295.32-20.9 295.07-20.9L295.07-20.9Q294.52-20.9 293.92-20.05 293.32-19.2 292.67-16.95L292.67-16.95 289.97-17.75Q290.17-18.8 290.75-20.15 291.32-21.5 292.27-22.73 293.22-23.95 294.52-24.75 295.82-25.55 297.52-25.55L297.52-25.55Q300.32-25.55 301.3-24.05 302.27-22.55 302.27-19.9L302.27-19.9Q302.27-18.4 302.07-16.53 301.87-14.65 301.62-12.7 301.37-10.75 301.17-9.03 300.97-7.3 300.97-6.15L300.97-6.15Q300.97-5.4 301.12-4.93 301.27-4.45 301.57-4.25 301.87-4.05 302.37-4.05L302.37-4.05Q303.22-4.05 304.15-5.15 305.07-6.25 305.92-8.13 306.77-10 307.47-12.28 308.17-14.55 308.6-16.93 309.02-19.3 309.02-21.4L309.02-21.4Q309.02-22.1 309-23.25 308.97-24.4 308.87-25L308.87-25 315.32-25Q315.42-23.95 315.45-23.53 315.47-23.1 315.47-22.6L315.47-22.6Q315.47-21.55 315.35-20.08 315.22-18.6 315.02-16.9 314.82-15.2 314.57-13.5L314.57-13.5Q314.42-12.15 314.25-10.9 314.07-9.65 313.92-8.58 313.77-7.5 313.7-6.68 313.62-5.85 313.62-5.4L313.62-5.4Q313.62-4.6 313.85-4.35 314.07-4.1 314.32-4.1L314.32-4.1Q314.87-4.1 315.47-4.95 316.07-5.8 316.72-8.05L316.72-8.05 319.42-7.25Q319.22-6.2 318.77-4.85 318.32-3.5 317.52-2.27 316.72-1.05 315.57-0.25 314.42 0.55 312.77 0.55L312.77 0.55Q311.17 0.55 309.87-0.4 308.57-1.35 308.57-4L308.57-4Q308.57-5 308.67-5.7 308.77-6.4 308.82-7.25L308.82-7.25 308.77-7.25Q307.62-4.25 306.27-2.55 304.92-0.85 303.47-0.15 302.02 0.55 300.57 0.55ZM342.57 0.55L342.57 0.55Q339.82 0.55 338.84-0.95 337.87-2.45 337.87-5.1L337.87-5.1Q337.87-6.6 338.07-8.47 338.27-10.35 338.49-12.3 338.72-14.25 338.92-15.98 339.12-17.7 339.12-18.85L339.12-18.85Q339.12-19.6 338.97-20.08 338.82-20.55 338.52-20.75 338.22-20.95 337.72-20.95L337.72-20.95Q336.82-20.95 335.84-19.85 334.87-18.75 333.97-16.88 333.07-15 332.37-12.73 331.67-10.45 331.24-8.08 330.82-5.7 330.82-3.6L330.82-3.6Q330.82-2.95 330.87-1.78 330.92-0.6 330.97 0L330.97 0 324.52 0Q324.42-1.05 324.39-1.48 324.37-1.9 324.37-2.4L324.37-2.4Q324.37-3.45 324.49-4.88 324.62-6.3 324.82-7.98 325.02-9.65 325.22-11.3L325.22-11.3Q325.37-12.65 325.54-13.93 325.72-15.2 325.87-16.32 326.02-17.45 326.09-18.3 326.17-19.15 326.17-19.6L326.17-19.6Q326.17-20.45 325.94-20.68 325.72-20.9 325.47-20.9L325.47-20.9Q324.92-20.9 324.32-20.05 323.72-19.2 323.07-16.95L323.07-16.95 320.32-17.75Q320.57-18.8 321.02-20.15 321.47-21.5 322.27-22.73 323.07-23.95 324.22-24.75 325.37-25.55 327.02-25.55L327.02-25.55Q328.12-25.55 329.07-25.15 330.02-24.75 330.62-23.78 331.22-22.8 331.22-21L331.22-21Q331.22-20.05 331.12-19.45 331.02-18.85 330.92-18L330.92-18 330.97-18Q332.17-21 333.59-22.65 335.02-24.3 336.54-24.93 338.07-25.55 339.52-25.55L339.52-25.55Q341.67-25.55 342.97-24.6 344.27-23.65 344.89-21.93 345.52-20.2 345.52-17.85L345.52-17.85Q345.52-16.05 345.22-13.85 344.92-11.65 344.59-9.45 344.27-7.25 344.27-5.4L344.27-5.4Q344.27-4.6 344.52-4.35 344.77-4.1 345.02-4.1L345.02-4.1Q345.57-4.1 346.17-4.95 346.77-5.8 347.42-8.05L347.42-8.05 350.12-7.25Q349.92-6.2 349.34-4.85 348.77-3.5 347.82-2.27 346.87-1.05 345.57-0.25 344.27 0.55 342.57 0.55ZM359.22 0.55L359.22 0.55Q356.72 0.55 355.06-0.73 353.42-2 352.62-4.15 351.81-6.3 351.81-9L351.81-9Q351.81-13.75 353.29-17.5 354.77-21.25 357.84-23.4 360.92-25.55 365.67-25.55L365.67-25.55Q366.02-25.55 366.87-25.53 367.72-25.5 368.06-25.45L368.06-25.45Q368.31-27.75 368.44-29.1 368.56-30.45 368.67-31.25 368.77-32.05 368.87-32.6L368.87-32.6Q368.06-32.55 366.99-32.52 365.92-32.5 365.37-32.45L365.37-32.45 365.56-36.25Q367.92-36.25 369.47-36.5 371.02-36.75 371.94-37.1 372.87-37.45 373.22-37.75L373.22-37.75 375.92-37.75Q375.47-33.75 374.99-29.75 374.52-25.75 374.06-21.75L374.06-21.75Q373.72-18.35 373.31-15.2 372.92-12.05 372.67-9.55 372.42-7.05 372.42-5.55L372.42-5.55Q372.42-4.65 372.67-4.38 372.92-4.1 373.17-4.1L373.17-4.1Q373.72-4.1 374.31-4.95 374.92-5.8 375.56-8.05L375.56-8.05 378.31-7.25Q378.12-6.2 377.62-4.85 377.12-3.5 376.31-2.27 375.52-1.05 374.34-0.25 373.17 0.55 371.52 0.55L371.52 0.55Q369.92 0.55 368.72-0.4 367.52-1.35 367.52-4L367.52-4Q367.52-5 367.56-5.58 367.62-6.15 367.72-7L367.72-7 367.67-7Q366.47-4.05 365.02-2.4 363.56-0.75 362.06-0.1 360.56 0.55 359.22 0.55ZM361.06-4L361.06-4Q362.31-4 363.34-5.25 364.37-6.5 365.19-8.72 366.02-10.95 366.62-13.85L366.62-13.85Q366.97-15.65 367.22-17.68 367.47-19.7 367.67-21.85L367.67-21.85Q367.31-22 366.42-22.13 365.52-22.25 365.02-22.25L365.02-22.25Q363.31-22.25 362.17-21.28 361.02-20.3 360.31-18.75 359.62-17.2 359.24-15.4 358.87-13.6 358.74-11.93 358.62-10.25 358.62-9.05L358.62-9.05Q358.62-6.5 359.29-5.25 359.97-4 361.06-4ZM392.61-25.55L392.61-25.55Q394.81-25.55 396.51-24.9 398.21-24.25 399.16-22.85 400.11-21.45 400.11-19.25L400.11-19.25Q400.11-17.2 398.89-15.78 397.66-14.35 395.69-13.45 393.71-12.55 391.36-11.98 389.01-11.4 386.81-11.1L386.81-11.1Q386.81-8.25 387.49-6.73 388.16-5.2 389.21-4.63 390.26-4.05 391.31-4.05L391.31-4.05Q392.16-4.05 393.34-4.38 394.51-4.7 395.71-5.75 396.91-6.8 397.81-8.85L397.81-8.85 400.61-7.5Q399.21-4.25 397.46-2.5 395.71-0.75 393.81-0.1 391.91 0.55 389.96 0.55L389.96 0.55Q385.36 0.6 382.66-2.1 379.96-4.8 379.96-10.35L379.96-10.35Q379.96-12.75 380.71-15.4 381.46-18.05 382.99-20.35 384.51-22.65 386.91-24.1 389.31-25.55 392.61-25.55ZM392.06-22.25L392.06-22.25Q390.36-22.25 389.31-21.05 388.26-19.85 387.71-18.03 387.16-16.2 386.96-14.35L386.96-14.35Q389.66-14.85 391.26-15.7 392.86-16.55 393.59-17.65 394.31-18.75 394.26-19.95L394.26-19.95Q394.21-21.2 393.51-21.73 392.81-22.25 392.06-22.25ZM413.26 0L406.71 0Q406.61-1.05 406.59-1.48 406.56-1.9 406.56-2.4L406.56-2.4Q406.56-3.45 406.69-4.93 406.81-6.4 407.01-8.1 407.21-9.8 407.41-11.45L407.41-11.45Q407.66-13.25 407.88-14.88 408.11-16.5 408.24-17.75 408.36-19 408.36-19.6L408.36-19.6Q408.36-20.45 408.13-20.68 407.91-20.9 407.66-20.9L407.66-20.9Q407.11-20.9 406.51-20.05 405.91-19.2 405.26-16.95L405.26-16.95 402.51-17.75Q402.76-18.8 403.21-20.15 403.66-21.5 404.46-22.73 405.26-23.95 406.41-24.75 407.56-25.55 409.21-25.55L409.21-25.55Q410.81-25.55 412.11-24.6 413.41-23.65 413.41-21L413.41-21Q413.41-20.2 413.29-19.1 413.16-18 412.91-16.55L412.91-16.55 412.96-16.55Q414.31-20.35 415.74-22.28 417.16-24.2 418.56-24.88 419.96-25.55 421.16-25.55L421.16-25.55Q423.06-25.55 424.21-24.53 425.36-23.5 425.36-21.75L425.36-21.75Q425.36-20.45 424.44-19.4 423.51-18.35 422.01-18.35L422.01-18.35Q420.91-18.35 420.06-19.05 419.21-19.75 419.26-20.95L419.26-20.95Q418.41-21.05 417.54-19.98 416.66-18.9 415.88-17.03 415.11-15.15 414.49-12.85 413.86-10.55 413.49-8.15 413.11-5.75 413.11-3.6L413.11-3.6Q413.11-2.95 413.16-1.78 413.21-0.6 413.26 0L413.26 0ZM435.06 0.55L435.06 0.55Q432.66 0.55 430.63-0.15 428.61-0.85 427.36-2.18 426.11-3.5 426.11-5.25L426.11-5.25Q426.11-6.8 427.03-7.78 427.96-8.75 429.31-8.75L429.31-8.75Q430.66-8.75 431.51-7.85 432.36-6.95 432.36-5.65L432.36-5.65Q432.36-5.3 432.28-4.93 432.21-4.55 432.06-4.15L432.06-4.15Q432.31-3.65 433.38-3.2 434.46-2.75 435.21-2.75L435.21-2.75Q437.41-2.75 438.28-3.7 439.16-4.65 439.16-5.85L439.16-5.85Q439.16-6.8 438.43-7.53 437.71-8.25 436.56-8.95 435.41-9.65 434.11-10.4L434.11-10.4Q431.76-11.75 430.21-12.9 428.66-14.05 427.93-15.33 427.21-16.6 427.21-18.35L427.21-18.35Q427.21-20.1 428.31-21.75 429.41-23.4 431.53-24.48 433.66-25.55 436.71-25.55L436.71-25.55Q438.71-25.55 440.63-24.9 442.56-24.25 443.83-23.03 445.11-21.8 445.11-20.05L445.11-20.05Q445.11-18.75 444.26-17.75 443.41-16.75 441.96-16.75L441.96-16.75Q440.61-16.75 439.78-17.68 438.96-18.6 438.96-19.8L438.96-19.8Q438.96-20.2 439.03-20.55 439.11-20.9 439.26-21.25L439.26-21.25Q438.86-21.8 438.03-22.03 437.21-22.25 436.51-22.25L436.51-22.25Q435.81-22.25 435.03-21.95 434.26-21.65 433.71-21.08 433.16-20.5 433.16-19.65L433.16-19.65Q433.16-18.95 433.48-18.43 433.81-17.9 434.81-17.23 435.81-16.55 437.81-15.35L437.81-15.35Q439.46-14.4 441.18-13.3 442.91-12.2 444.08-10.73 445.26-9.25 445.26-7.15L445.26-7.15Q445.26-4.9 443.91-3.15 442.56-1.4 440.26-0.43 437.96 0.55 435.06 0.55ZM456.66-32.55L460-32.55 459-25 465.25-25 464.96-21.55 458.71-21.45Q458.5-19.65 458.25-17.57 458-15.5 457.83-13.53 457.66-11.55 457.53-9.98 457.41-8.4 457.41-7.55L457.41-7.55Q457.41-6.9 457.56-6.13 457.71-5.35 458.21-4.8 458.71-4.25 459.81-4.25L459.81-4.25Q460.21-4.25 460.98-4.48 461.75-4.7 462.66-5.35 463.56-6 464.31-7.4L464.31-7.4 466.86-5.8Q465.16-2.6 462.71-1.03 460.25 0.55 457.46 0.55L457.46 0.55Q454.71 0.55 453.33-0.6 451.96-1.75 451.5-3.63 451.06-5.5 451.11-7.55L451.11-7.55Q451.21-9.25 451.36-11.58 451.5-13.9 451.75-16.48 452-19.05 452.25-21.4L452.25-21.4 448.25-21.35 448.71-25Q452.41-25 454.18-26.95 455.96-28.9 456.66-32.55L456.66-32.55ZM483.45-25.55L483.45-25.55Q484.85-25.55 486.73-25.28 488.6-25 490.65-24.5L490.65-24.5Q490.4-22.65 490-19.95 489.6-17.25 489.23-14.43 488.85-11.6 488.6-9.22 488.35-6.85 488.35-5.55L488.35-5.55Q488.35-4.65 488.58-4.38 488.8-4.1 489.05-4.1L489.05-4.1Q489.65-4.1 490.3-4.95 490.95-5.8 491.6-8.05L491.6-8.05 494.3-7.25Q494.1-6.2 493.6-4.85 493.1-3.5 492.28-2.27 491.45-1.05 490.23-0.25 489 0.55 487.35 0.55L487.35 0.55Q485.75 0.55 484.55-0.4 483.35-1.35 483.35-4L483.35-4Q483.35-4.65 483.4-5.45 483.45-6.25 483.55-6.9L483.55-6.9 483.5-6.9Q482.6-4.75 481.58-3.3 480.55-1.85 479.48-1 478.4-0.15 477.28 0.2 476.15 0.55 475 0.55L475 0.55Q472.25 0.55 470.3-1.68 468.35-3.9 468.35-8.55L468.35-8.55Q468.35-12 469.35-15.05 470.35-18.1 472.3-20.48 474.25-22.85 477.05-24.2 479.85-25.55 483.45-25.55ZM481.6-22.25L481.6-22.25Q480.2-22.25 479.03-21.35 477.85-20.45 476.98-18.7 476.1-16.95 475.65-14.35 475.2-11.75 475.2-8.3L475.2-8.3Q475.2-6.25 475.7-5.08 476.2-3.9 477.1-3.9L477.1-3.9Q478.2-3.9 479.15-5.03 480.1-6.15 480.88-8.08 481.65-10 482.23-12.38 482.8-14.75 483.18-17.23 483.55-19.7 483.65-21.95L483.65-21.95Q483.4-22.05 482.78-22.15 482.15-22.25 481.6-22.25ZM517.2 0.55L517.2 0.55Q514.45 0.55 513.48-0.95 512.5-2.45 512.5-5.1L512.5-5.1Q512.5-6.6 512.7-8.47 512.9-10.35 513.13-12.3 513.35-14.25 513.55-15.98 513.75-17.7 513.75-18.85L513.75-18.85Q513.75-19.6 513.6-20.08 513.45-20.55 513.15-20.75 512.85-20.95 512.35-20.95L512.35-20.95Q511.45-20.95 510.48-19.85 509.5-18.75 508.6-16.88 507.7-15 507-12.73 506.3-10.45 505.88-8.08 505.45-5.7 505.45-3.6L505.45-3.6Q505.45-2.95 505.5-1.78 505.55-0.6 505.6 0L505.6 0 499.15 0Q499.05-1.05 499.03-1.48 499-1.9 499-2.4L499-2.4Q499-3.45 499.13-4.88 499.25-6.3 499.45-7.98 499.65-9.65 499.85-11.3L499.85-11.3Q500-12.65 500.18-13.93 500.35-15.2 500.5-16.32 500.65-17.45 500.73-18.3 500.8-19.15 500.8-19.6L500.8-19.6Q500.8-20.45 500.57-20.68 500.35-20.9 500.1-20.9L500.1-20.9Q499.55-20.9 498.95-20.05 498.35-19.2 497.7-16.95L497.7-16.95 494.95-17.75Q495.2-18.8 495.65-20.15 496.1-21.5 496.9-22.73 497.7-23.95 498.85-24.75 500-25.55 501.65-25.55L501.65-25.55Q502.75-25.55 503.7-25.15 504.65-24.75 505.25-23.78 505.85-22.8 505.85-21L505.85-21Q505.85-20.05 505.75-19.45 505.65-18.85 505.55-18L505.55-18 505.6-18Q506.8-21 508.23-22.65 509.65-24.3 511.18-24.93 512.7-25.55 514.15-25.55L514.15-25.55Q516.3-25.55 517.6-24.6 518.9-23.65 519.52-21.93 520.15-20.2 520.15-17.85L520.15-17.85Q520.15-16.05 519.85-13.85 519.55-11.65 519.23-9.45 518.9-7.25 518.9-5.4L518.9-5.4Q518.9-4.6 519.15-4.35 519.4-4.1 519.65-4.1L519.65-4.1Q520.2-4.1 520.8-4.95 521.4-5.8 522.05-8.05L522.05-8.05 524.75-7.25Q524.55-6.2 523.98-4.85 523.4-3.5 522.45-2.27 521.5-1.05 520.2-0.25 518.9 0.55 517.2 0.55ZM533.85 0.55L533.85 0.55Q531.35 0.55 529.7-0.73 528.05-2 527.25-4.15 526.45-6.3 526.45-9L526.45-9Q526.45-13.75 527.92-17.5 529.4-21.25 532.47-23.4 535.55-25.55 540.3-25.55L540.3-25.55Q540.65-25.55 541.5-25.53 542.35-25.5 542.7-25.45L542.7-25.45Q542.95-27.75 543.07-29.1 543.2-30.45 543.3-31.25 543.4-32.05 543.5-32.6L543.5-32.6Q542.7-32.55 541.62-32.52 540.55-32.5 540-32.45L540-32.45 540.2-36.25Q542.55-36.25 544.1-36.5 545.65-36.75 546.57-37.1 547.5-37.45 547.85-37.75L547.85-37.75 550.55-37.75Q550.1-33.75 549.62-29.75 549.15-25.75 548.7-21.75L548.7-21.75Q548.35-18.35 547.95-15.2 547.55-12.05 547.3-9.55 547.05-7.05 547.05-5.55L547.05-5.55Q547.05-4.65 547.3-4.38 547.55-4.1 547.8-4.1L547.8-4.1Q548.35-4.1 548.95-4.95 549.55-5.8 550.2-8.05L550.2-8.05 552.95-7.25Q552.75-6.2 552.25-4.85 551.75-3.5 550.95-2.27 550.15-1.05 548.97-0.25 547.8 0.55 546.15 0.55L546.15 0.55Q544.55 0.55 543.35-0.4 542.15-1.35 542.15-4L542.15-4Q542.15-5 542.2-5.58 542.25-6.15 542.35-7L542.35-7 542.3-7Q541.1-4.05 539.65-2.4 538.2-0.75 536.7-0.1 535.2 0.55 533.85 0.55ZM535.7-4L535.7-4Q536.95-4 537.97-5.25 539-6.5 539.82-8.72 540.65-10.95 541.25-13.85L541.25-13.85Q541.6-15.65 541.85-17.68 542.1-19.7 542.3-21.85L542.3-21.85Q541.95-22 541.05-22.13 540.15-22.25 539.65-22.25L539.65-22.25Q537.95-22.25 536.8-21.28 535.65-20.3 534.95-18.75 534.25-17.2 533.87-15.4 533.5-13.6 533.37-11.93 533.25-10.25 533.25-9.05L533.25-9.05Q533.25-6.5 533.92-5.25 534.6-4 535.7-4ZM575.69-32.55L579.04-32.55 578.04-25 584.29-25 583.99-21.55 577.74-21.45Q577.54-19.65 577.29-17.57 577.04-15.5 576.87-13.53 576.69-11.55 576.57-9.98 576.44-8.4 576.44-7.55L576.44-7.55Q576.44-6.9 576.59-6.13 576.74-5.35 577.24-4.8 577.74-4.25 578.84-4.25L578.84-4.25Q579.24-4.25 580.02-4.48 580.79-4.7 581.69-5.35 582.59-6 583.34-7.4L583.34-7.4 585.89-5.8Q584.19-2.6 581.74-1.03 579.29 0.55 576.49 0.55L576.49 0.55Q573.74 0.55 572.37-0.6 570.99-1.75 570.54-3.63 570.09-5.5 570.14-7.55L570.14-7.55Q570.24-9.25 570.39-11.58 570.54-13.9 570.79-16.48 571.04-19.05 571.29-21.4L571.29-21.4 567.29-21.35 567.74-25Q571.44-25 573.22-26.95 574.99-28.9 575.69-32.55L575.69-32.55ZM606.99 0.55L606.99 0.55Q604.24 0.55 603.24-0.95 602.24-2.45 602.24-5.1L602.24-5.1Q602.24-6.6 602.44-8.47 602.64-10.35 602.86-12.3 603.09-14.25 603.29-15.98 603.49-17.7 603.49-18.85L603.49-18.85Q603.49-19.6 603.34-20.08 603.19-20.55 602.89-20.75 602.59-20.95 602.09-20.95L602.09-20.95Q601.19-20.95 600.21-19.85 599.24-18.75 598.31-16.88 597.39-15 596.66-12.73 595.94-10.45 595.51-8.08 595.09-5.7 595.09-3.6L595.09-3.6Q595.09-2.95 595.14-1.78 595.19-0.6 595.24 0L595.24 0 588.84 0Q588.74-1.05 588.71-1.48 588.69-1.9 588.69-2.4L588.69-2.4Q588.69-4.85 588.79-7.63 588.89-10.4 589.04-13.23 589.19-16.05 589.39-18.75 589.59-21.45 589.81-23.8 590.04-26.15 590.24-27.95L590.24-27.95Q590.34-28.8 590.51-30.2 590.69-31.6 590.89-32.6L590.89-32.6 587.39-32.45 587.59-36.25Q589.94-36.25 591.49-36.5 593.04-36.75 593.94-37.1 594.84-37.45 595.19-37.75L595.19-37.75 597.89-37.75Q597.74-36.3 597.49-34.3 597.24-32.3 597.01-30.43 596.79-28.55 596.64-27.55L596.64-27.55Q596.59-27.15 596.49-26.13 596.39-25.1 596.19-23.7 595.99-22.3 595.76-20.83 595.54-19.35 595.24-18L595.24-18 595.29-18Q596.44-21 597.89-22.65 599.34-24.3 600.89-24.93 602.44-25.55 603.84-25.55L603.84-25.55Q607.04-25.55 608.49-23.48 609.94-21.4 609.94-17.85L609.94-17.85Q609.94-16.05 609.64-13.85 609.34-11.65 609.01-9.45 608.69-7.25 608.69-5.4L608.69-5.4Q608.69-4.6 608.91-4.35 609.14-4.1 609.44-4.1L609.44-4.1Q609.99-4.1 610.59-4.95 611.19-5.8 611.84-8.05L611.84-8.05 614.54-7.25Q614.34-6.2 613.76-4.85 613.19-3.5 612.24-2.27 611.29-1.05 609.99-0.25 608.69 0.55 606.99 0.55ZM628.84-25.55L628.84-25.55Q631.04-25.55 632.74-24.9 634.44-24.25 635.39-22.85 636.34-21.45 636.34-19.25L636.34-19.25Q636.34-17.2 635.11-15.78 633.89-14.35 631.91-13.45 629.94-12.55 627.59-11.98 625.24-11.4 623.04-11.1L623.04-11.1Q623.04-8.25 623.71-6.73 624.39-5.2 625.44-4.63 626.49-4.05 627.54-4.05L627.54-4.05Q628.39-4.05 629.56-4.38 630.74-4.7 631.94-5.75 633.14-6.8 634.04-8.85L634.04-8.85 636.84-7.5Q635.44-4.25 633.69-2.5 631.94-0.75 630.04-0.1 628.14 0.55 626.19 0.55L626.19 0.55Q621.59 0.6 618.89-2.1 616.19-4.8 616.19-10.35L616.19-10.35Q616.19-12.75 616.94-15.4 617.69-18.05 619.21-20.35 620.74-22.65 623.14-24.1 625.54-25.55 628.84-25.55ZM628.29-22.25L628.29-22.25Q626.59-22.25 625.54-21.05 624.49-19.85 623.94-18.03 623.39-16.2 623.19-14.35L623.19-14.35Q625.89-14.85 627.49-15.7 629.09-16.55 629.81-17.65 630.54-18.75 630.49-19.95L630.49-19.95Q630.44-21.2 629.74-21.73 629.04-22.25 628.29-22.25ZM668.83-35.1L668.83-35.1Q674.78-35.15 678.16-32.88 681.53-30.6 680.98-26L680.98-26Q680.83-24.55 679.98-23.18 679.13-21.8 677.56-20.7 675.98-19.6 673.58-18.95L673.58-18.95 673.58-18.9Q678.48-18.1 680.66-15.58 682.83-13.05 682.68-9.95L682.68-9.95Q682.53-6.7 680.86-4.48 679.18-2.25 676.41-1.13 673.63 0 670.13 0L670.13 0 653.23 0 653.43-3.3Q654.53-3.35 655.33-3.6 656.13-3.85 656.61-4.75 657.08-5.65 657.18-7.65L657.18-7.65 658.18-26.8Q658.28-28.15 658.41-29.4 658.53-30.65 658.63-31.3L658.63-31.3Q657.83-31.25 656.63-31.23 655.43-31.2 654.88-31.15L654.88-31.15 655.08-35Q658.53-35.05 661.96-35.05 665.38-35.05 668.83-35.1ZM668.78-16.15L668.78-16.15Q667.53-16.15 666.63-16.15 665.73-16.15 664.73-16.1L664.73-16.1 664.33-7.95Q664.28-6.6 664.13-5.4 663.98-4.2 663.88-3.55L663.88-3.55Q664.78-3.55 665.58-3.55 666.38-3.55 667.18-3.58 667.98-3.6 668.78-3.6L668.78-3.6Q671.83-3.75 673.31-5.55 674.78-7.35 674.93-10.1L674.93-10.1Q675.08-12.4 674.21-13.73 673.33-15.05 671.88-15.6 670.43-16.15 668.78-16.15ZM668.48-31.6L668.48-31.6Q667.68-31.6 666.98-31.35 666.28-31.1 665.86-30.23 665.43-29.35 665.33-27.4L665.33-27.4 664.93-19.65Q665.58-19.65 666.23-19.68 666.88-19.7 667.53-19.7L667.53-19.7Q669.68-19.75 670.96-20.65 672.23-21.55 672.83-23.08 673.43-24.6 673.48-26.4L673.48-26.4Q673.63-28.4 672.88-29.53 672.13-30.65 670.96-31.15 669.78-31.65 668.48-31.6ZM691.83-25.55L691.83-25.55Q694.43-25.55 695.45-23.98 696.48-22.4 696.48-19.75L696.48-19.75Q696.48-18.55 696.23-16.5 695.98-14.45 695.68-12.2 695.38-9.95 695.13-8.1 694.88-6.25 694.88-5.4L694.88-5.4Q694.88-4.6 695.13-4.35 695.38-4.1 695.63-4.1L695.63-4.1Q696.23-4.1 696.83-4.95 697.43-5.8 698.08-8.05L698.08-8.05 700.78-7.25Q700.58-6.2 700-4.85 699.43-3.5 698.48-2.27 697.53-1.05 696.2-0.25 694.88 0.55 693.18 0.55L693.18 0.55Q690.43 0.55 689.4-0.95 688.38-2.45 688.38-5.1L688.38-5.1Q688.38-6.55 688.63-8.55 688.88-10.55 689.2-12.65 689.53-14.75 689.78-16.57 690.03-18.4 690.03-19.6L690.03-19.6Q690.03-20.45 689.78-20.68 689.53-20.9 689.23-20.9L689.23-20.9Q688.68-20.9 688.08-20.05 687.48-19.2 686.83-16.95L686.83-16.95 684.13-17.75Q684.33-18.8 684.93-20.15 685.53-21.5 686.5-22.73 687.48-23.95 688.8-24.75 690.13-25.55 691.83-25.55ZM693.58-38.15L693.58-38.15Q695.23-38.15 696.25-36.95 697.28-35.75 697.18-34L697.18-34Q697.13-32.3 696.03-31.13 694.93-29.95 693.28-29.95L693.28-29.95Q691.58-29.95 690.55-31.13 689.53-32.3 689.58-34L689.58-34Q689.68-35.75 690.88-36.95 692.08-38.15 693.58-38.15ZM709.78-37.75L712.48-37.75Q712.28-36.3 712.08-34.3 711.88-32.3 711.7-30.43 711.53-28.55 711.43-27.55L711.43-27.55Q711.38-27 711.25-25.63 711.13-24.25 710.95-22.63 710.78-21 710.53-19.65L710.53-19.65 710.58-19.65Q711.43-21.3 712.38-22.43 713.33-23.55 714.33-24.23 715.33-24.9 716.25-25.23 717.18-25.55 717.98-25.55L717.98-25.55Q720.53-25.55 722.1-24.2 723.68-22.85 724.4-20.68 725.13-18.5 725.13-16L725.13-16Q725.13-12.65 724.38-9.65 723.63-6.65 722.03-4.35 720.43-2.05 717.85-0.75 715.28 0.55 711.58 0.55L711.58 0.55Q710.78 0.55 709.38 0.43 707.98 0.3 706.43 0 704.88-0.3 703.58-0.8L703.58-0.8Q703.73-4.8 703.88-8.08 704.03-11.35 704.2-14.43 704.38-17.5 704.58-20.78 704.78-24.05 705.03-28L705.03-28Q705.08-28.85 705.18-30.18 705.28-31.5 705.43-32.6L705.43-32.6Q704.63-32.55 703.58-32.52 702.53-32.5 701.98-32.45L701.98-32.45 702.18-36.25Q704.48-36.25 706.03-36.5 707.58-36.75 708.5-37.1 709.43-37.45 709.78-37.75L709.78-37.75ZM715.98-20.95L715.98-20.95Q715.03-20.95 714.13-20.03 713.23-19.1 712.48-17.45 711.73-15.8 711.15-13.55 710.58-11.3 710.23-8.68 709.88-6.05 709.83-3.2L709.83-3.2Q710.23-3 711-2.88 711.78-2.75 712.28-2.75L712.28-2.75Q713.93-2.75 715-3.68 716.08-4.6 716.75-6.13 717.43-7.65 717.75-9.47 718.08-11.3 718.18-13.08 718.28-14.85 718.28-16.25L718.28-16.25Q718.28-18.95 717.55-19.95 716.83-20.95 715.98-20.95ZM736.32-37.75L739.02-37.75Q738.87-36.2 738.7-34.73 738.52-33.25 738.37-31.9 738.22-30.55 738.07-29.25L738.07-29.25Q737.52-24.45 737.12-20.88 736.72-17.3 736.45-14.73 736.17-12.15 736-10.4 735.82-8.65 735.75-7.5 735.67-6.35 735.67-5.55L735.67-5.55Q735.67-4.65 735.9-4.38 736.12-4.1 736.37-4.1L736.37-4.1Q736.97-4.1 737.57-4.95 738.17-5.8 738.82-8.05L738.82-8.05 741.52-7.25Q741.22-6 740.65-4.63 740.07-3.25 739.17-2.08 738.27-0.9 736.95-0.18 735.62 0.55 733.82 0.55L733.82 0.55Q732.02 0.55 730.67-0.55 729.32-1.65 729.32-4.25L729.32-4.25Q729.32-6.05 729.45-8.2 729.57-10.35 729.77-12.75 729.97-15.15 730.25-17.68 730.52-20.2 730.82-22.8 731.12-25.4 731.42-27.95L731.42-27.95Q731.52-28.95 731.7-30.23 731.87-31.5 732.07-32.6L732.07-32.6Q731.27-32.55 730.2-32.52 729.12-32.5 728.57-32.45L728.57-32.45 728.77-36.25Q731.07-36.25 732.62-36.5 734.17-36.75 735.07-37.1 735.97-37.45 736.32-37.75L736.32-37.75ZM756.02-25.55L756.02-25.55Q758.22-25.55 759.92-24.9 761.62-24.25 762.57-22.85 763.52-21.45 763.52-19.25L763.52-19.25Q763.52-17.2 762.3-15.78 761.07-14.35 759.1-13.45 757.12-12.55 754.77-11.98 752.42-11.4 750.22-11.1L750.22-11.1Q750.22-8.25 750.9-6.73 751.57-5.2 752.62-4.63 753.67-4.05 754.72-4.05L754.72-4.05Q755.57-4.05 756.75-4.38 757.92-4.7 759.12-5.75 760.32-6.8 761.22-8.85L761.22-8.85 764.02-7.5Q762.62-4.25 760.87-2.5 759.12-0.75 757.22-0.1 755.32 0.55 753.37 0.55L753.37 0.55Q748.77 0.6 746.07-2.1 743.37-4.8 743.37-10.35L743.37-10.35Q743.37-12.75 744.12-15.4 744.87-18.05 746.4-20.35 747.92-22.65 750.32-24.1 752.72-25.55 756.02-25.55ZM755.47-22.25L755.47-22.25Q753.77-22.25 752.72-21.05 751.67-19.85 751.12-18.03 750.57-16.2 750.37-14.35L750.37-14.35Q753.07-14.85 754.67-15.7 756.27-16.55 757-17.65 757.72-18.75 757.67-19.95L757.67-19.95Q757.62-21.2 756.92-21.73 756.22-22.25 755.47-22.25Z" opacity="1" transform="matrix(1,0,0,1,0,0)" fill="#ffffff" class="slogan-text-1" data-fill-palette-color="secondary" id="text-1"></path></svg></g></svg></g></svg></g></svg></g><g><svg viewBox="0 0 150.46251706736757 183.54292862118598" height="183.54292862118598" width="150.46251706736757"><g><svg xmlns="http://www.w3.org/2000/svg" xmlns:xlink="http://www.w3.org/1999/xlink" version="1.1" x="0" y="0" viewBox="15.299999237060547 8 70.5 86" enable-background="new 0 0 100 100" xml:space="preserve" height="183.54292862118598" width="150.46251706736757" class="icon-icon-0" data-fill-palette-color="accent" id="icon-0"><path fill="#ffffff" d="M85.7 94H28.2c-7.1 0-12.9-5.8-12.9-12.9V20.9h8.6v60.2c0 2.4 1.9 4.3 4.3 4.3h49V29.5h8.6V94z" data-fill-palette-color="accent"></path><path fill="#ffffff" d="M81.4 33.8H28.2c-7.1 0-12.9-5.8-12.9-12.9h8.6c0 2.4 1.9 4.3 4.3 4.3h53.3V33.8z" data-fill-palette-color="accent"></path><path fill="#ffffff" d="M23.9 20.9h-8.6C15.3 13.8 21.1 8 28.2 8h57.6v8.6H28.2C25.8 16.6 23.9 18.5 23.9 20.9z" data-fill-palette-color="accent"></path><g fill="#24a8df" data-fill-palette-color="accent"><path fill="#ffffff" d="M50.5 76.3c-2.4 0-4.3-1.9-4.3-4.3V46.9c0-2.4 1.9-4.3 4.3-4.3 2.4 0 4.3 1.9 4.3 4.3V72C54.8 74.4 52.9 76.3 50.5 76.3z" data-fill-palette-color="accent"></path><path fill="#ffffff" d="M58.7 60.2H42.3c-2.4 0-4.3-1.9-4.3-4.3 0-2.4 1.9-4.3 4.3-4.3h16.5c2.4 0 4.3 1.9 4.3 4.3C63 58.3 61.1 60.2 58.7 60.2z" data-fill-palette-color="accent"></path></g><path fill="#ffffff" d="M85.7 33.8c-7.1 0-12.9-5.8-12.9-12.9S78.6 8 85.7 8v8.6c-2.4 0-4.3 1.9-4.3 4.3s1.9 4.3 4.3 4.3V33.8z" data-fill-palette-color="accent"></path></svg></g></svg></g></svg></g><defs></defs></svg><rect width="395.51999999999987" height="130.17735225443332" fill="none" stroke="none" visibility="hidden"></rect></g></svg></g></svg>